<svg xmlns="http://www.w3.org/2000/svg" viewBox="0 0 512 512" role="img" aria-label="Complete Cruising">
  <defs>
    <linearGradient id="ocean" x1="80" y1="48" x2="432" y2="464" gradientUnits="userSpaceOnUse">
      <stop offset="0" stop-color="#117782"/>
      <stop offset="0.52" stop-color="#082b43"/>
      <stop offset="1" stop-color="#03111d"/>
    </linearGradient>
    <linearGradient id="gold" x1="144" y1="112" x2="368" y2="400" gradientUnits="userSpaceOnUse">
      <stop offset="0" stop-color="#fff8ec"/>
      <stop offset="0.42" stop-color="#d8b56d"/>
      <stop offset="1" stop-color="#8ee4e1"/>
    </linearGradient>
  </defs>
  <rect width="512" height="512" rx="112" fill="url(#ocean)"/>
  <circle cx="256" cy="256" r="176" fill="none" stroke="rgba(255,248,236,0.22)" stroke-width="16"/>
  <path d="M256 105c58 78 91 143 91 194 0 57-40 93-91 93s-91-36-91-93c0-51 33-116 91-194Z" fill="rgba(3,17,29,0.52)" stroke="url(#gold)" stroke-width="18" stroke-linejoin="round"/>
  <path d="M152 315c45 18 84 27 116 27 38 0 71-11 103-34" fill="none" stroke="#8ee4e1" stroke-width="18" stroke-linecap="round"/>
  <path d="M176 371c31 14 63 21 96 21 31 0 59-6 84-19" fill="none" stroke="#d8b56d" stroke-width="12" stroke-linecap="round" opacity="0.82"/>
  <text x="256" y="279" text-anchor="middle" fill="#fff8ec" font-family="Georgia, serif" font-size="86" font-weight="700" letter-spacing="-8">CC</text>
</svg>
